<svg width="914" height="400" viewBox="0 0 914 400" fill="none" xmlns="http://www.w3.org/2000/svg"><style>#CL0 {fill: #261822;}#CL1 {fill: #270607;}#CL2 {fill: #40152A;}#CL3 {fill: #731630;}#CL4 {fill: #CC1E2C;}@media (prefers-color-scheme: dark) {#CL0 {fill: #261822;}#CL1 {fill: #D82126;}#CL2 {fill: #40152A;}#CL3 {fill: #731630;}#CL4 {fill: #CC1E2C;}}</style>
<path d="M466.825 185.836H453.829V189.292H458.509V207.508H453.829V211H466.825V207.508H462.145V189.292H466.825V185.836ZM473.861 211V193.396L486.029 211H488.909V185.8H485.309V203.548L473.033 185.8H470.225V211H473.861ZM510.467 192.172C509.819 187.564 505.787 185.548 501.899 185.548C498.983 185.548 495.959 186.7 494.267 188.896C493.187 190.3 492.755 191.992 492.899 193.684V193.648C493.295 198.904 497.903 199.768 501.827 200.164C504.347 200.416 506.939 200.74 507.371 202.648C507.443 202.972 507.479 203.26 507.479 203.512C507.479 206.104 504.527 207.616 501.827 207.616C499.487 207.616 496.643 206.392 496.391 204.052V204.196L496.355 203.656L492.683 203.728L492.719 204.412C493.187 208.912 497.903 211.216 501.791 211.216C506.327 211.216 511.151 208.408 511.151 203.548C511.151 203.044 511.079 202.432 510.971 201.892C509.999 197.86 505.715 196.96 502.259 196.528C499.559 196.276 496.715 195.952 496.535 193.36C496.463 192.496 496.643 191.668 497.147 191.02C498.155 189.724 500.027 189.148 501.719 189.112C503.915 189.076 506.363 190.048 506.867 192.316L510.467 192.172ZM524.294 211V189.256H531.89V185.8H513.026V189.256H520.658V211H524.294ZM542.357 191.272L546.137 201.208H538.577L542.357 191.272ZM549.881 211H553.769L543.653 185.476H540.989L530.873 211H534.797L537.245 204.628H547.469L549.881 211ZM559.994 185.8H556.358V211H571.838V207.364H559.994V185.8ZM578.592 185.8H574.956V211H590.436V207.364H578.592V185.8Z" id="CL1"/>
<mask id="mask0_62_18" style="mask-type:alpha" maskUnits="userSpaceOnUse" x="410" y="185" width="41" height="26">
<path d="M415.372 199.948L424.552 211H429.268L421.312 201.532C425.632 200.776 427.828 197.392 427.828 193.828C427.828 189.832 425.092 185.8 419.62 185.8H410.44V211H414.04V189.472H419.62C422.68 189.472 424.192 191.668 424.192 193.828C424.192 196.024 422.68 198.22 419.62 198.22H415.372V199.948ZM435.271 189.292H442.147C446.107 189.292 446.035 195.844 442.075 195.844H435.271V189.292ZM431.671 185.836V211H443.047C447.871 211 450.355 207.184 450.355 203.404C450.355 201.028 449.311 198.364 446.431 197.14C448.951 195.34 449.275 192.46 448.267 189.976C447.331 187.636 445.315 185.836 442.147 185.836H431.671ZM435.271 199.444H443.047C445.495 199.444 446.719 201.46 446.719 203.44C446.719 205.42 445.495 207.472 443.047 207.472H435.271V199.444Z" id="CL0"/>
</mask>
<g mask="url(#mask0_62_18)">
<path d="M391.274 195.338L391.274 195.64L407.913 215L446.742 215L463.125 195.64L463.125 195.338L427.275 159.047L391.274 195.338Z" id="CL3"/>
<path d="M407.923 214.991L413.813 214.991L403.763 207.239L407.923 214.991Z" id="CL0"/>
<path d="M403.763 207.239L413.813 214.991L418.322 207.126L418.322 207.088L405.843 195.328L403.763 207.239Z" id="CL4"/>
<path d="M407.809 178.691L405.843 195.328L427.332 159.028L407.809 178.691Z" id="CL0"/>
<path d="M427.389 159.142L427.332 159.028L405.843 195.328L420.611 178.521L427.389 159.142Z" id="CL4"/>
<path d="M414.73 195.328L420.61 178.521L405.843 195.328L414.73 195.328Z" id="CL3"/>
<path d="M418.322 207.088L414.73 195.328L405.843 195.328L418.322 207.088Z" id="CL2"/>
<path d="M427.332 214.991L418.322 207.126L413.813 214.991L427.332 214.991Z" id="CL3"/>
<path d="M427.332 195.555L427.237 195.328L414.73 195.328L418.322 207.088L427.332 195.621L427.332 195.555Z" id="CL0"/>
<path d="M414.73 195.328L427.238 195.328L420.61 178.521L414.73 195.328Z" id="CL2"/>
<path d="M418.322 207.088L418.322 207.126L427.332 214.991L436.342 207.126L427.332 195.621L418.322 207.088Z" id="CL4"/>
<path d="M427.238 195.328L427.417 195.328L434.139 178.029L427.578 159.454L427.389 159.142L420.61 178.521L427.238 195.328Z" id="CL3"/>
<path d="M427.332 195.555L427.332 195.621L436.342 207.126L440.256 195.328L427.417 195.328L427.332 195.555Z" id="CL3"/>
<path d="M440.852 214.991L436.342 207.126L427.332 214.991L440.852 214.991Z" id="CL0"/>
<path d="M434.148 178.038L434.139 178.029L427.417 195.328L440.256 195.328L434.148 178.038Z" id="CL2"/>
<path d="M448.632 195.328L446.864 178.7L427.493 159.199L427.578 159.454L448.632 195.328Z" id="CL2"/>
<path d="M434.139 178.029L434.149 178.038L448.632 195.328L427.578 159.454L434.139 178.029Z" id="CL0"/>
<path d="M434.149 178.038L440.256 195.328L448.632 195.328L434.149 178.038Z" id="CL4"/>
<path d="M436.342 207.126L440.852 214.991L450.845 207.239L448.632 195.328L436.342 207.126Z" id="CL3"/>
<path d="M440.256 195.328L436.342 207.126L448.632 195.328L440.256 195.328Z" id="CL2"/>
<path d="M446.742 214.991L450.845 207.239L440.852 214.991L446.742 214.991Z" id="CL2"/>
<path d="M450.845 207.24L446.742 214.992L463.381 195.632L450.845 207.24Z" id="CL3"/>
<path d="M448.632 195.328L456.328 195.328L446.874 178.71L446.864 178.7L448.632 195.328Z" id="CL3"/>
<path d="M446.874 178.71L456.328 195.328L463.381 195.328L446.874 178.71Z" id="CL2"/>
<path d="M456.328 195.328L448.632 195.328L450.844 207.239L456.328 195.328Z" id="CL4"/>
</g>
<path d="M357.992 227.953L358.058 228L358.086 227.962H358.03L357.992 227.953Z" id="CL3"/>
<path d="M394.107 191.662V191.36L377.467 172H338.639L322.255 191.36V191.662L358.105 227.953L394.107 191.662Z" id="CL3"/>
<path d="M357.954 227.962L357.973 227.896L357.926 227.839L357.954 227.962Z" id="CL3"/>
<path d="M394.097 191.672V191.369L381.618 179.761L387.857 191.672H394.097Z" id="CL0"/>
<path d="M377.458 172.009L381.618 179.761L394.097 191.369L377.458 172.009Z" id="CL3"/>
<path d="M394.097 191.672H387.857L377.571 208.309L394.097 191.672Z" id="CL2"/>
<path d="M379.538 191.672H387.857L381.618 179.761L379.538 191.672Z" id="CL3"/>
<path d="M377.571 208.309L387.857 191.672H379.538L377.571 208.309Z" id="CL4"/>
<path d="M377.458 172.009H371.568L381.618 179.761L377.458 172.009Z" id="CL0"/>
<path d="M381.618 179.761L371.568 172.009L367.059 179.874V179.912L379.538 191.672L381.618 179.761Z" id="CL4"/>
<path d="M377.572 208.309L379.538 191.672L358.049 227.972L377.572 208.309Z" id="CL0"/>
<path d="M357.992 227.858L358.048 227.972L379.538 191.672L364.77 208.479L357.992 227.858Z" id="CL4"/>
<path d="M370.651 191.672L364.771 208.479L379.538 191.672H370.651Z" id="CL3"/>
<path d="M367.059 179.912L370.651 191.672H379.538L367.059 179.912Z" id="CL2"/>
<path d="M358.049 172.009L367.059 179.874L371.568 172.009H358.049Z" id="CL3"/>
<path d="M358.049 191.445L358.143 191.672H370.651L367.059 179.912L358.049 191.379V191.445Z" id="CL0"/>
<path d="M370.651 191.672H358.143L364.77 208.479L370.651 191.672Z" id="CL2"/>
<path d="M367.059 179.912V179.874L358.049 172.009L349.039 179.874L358.049 191.379L367.059 179.912Z" id="CL4"/>
<path d="M358.143 191.672H357.964L351.242 208.971L357.803 227.546L357.992 227.858L364.771 208.479L358.143 191.672Z" id="CL3"/>
<path d="M358.049 191.445V191.379L349.039 179.874L345.125 191.672H357.964L358.049 191.445Z" id="CL3"/>
<path d="M344.529 172.009L349.039 179.874L358.049 172.009H344.529Z" id="CL0"/>
<path d="M351.232 208.962L351.242 208.971L357.964 191.672H345.125L351.232 208.962Z" id="CL2"/>
<path d="M336.749 191.672L338.516 208.3L357.888 227.802L357.803 227.546L336.749 191.672Z" id="CL2"/>
<path d="M351.242 208.971L351.232 208.962L336.749 191.672L357.803 227.546L351.242 208.971Z" id="CL0"/>
<path d="M351.232 208.962L345.125 191.672H336.749L351.232 208.962Z" id="CL4"/>
<path d="M349.039 179.874L344.529 172.009L334.536 179.761L336.748 191.672L349.039 179.874Z" id="CL3"/>
<path d="M345.125 191.672L349.039 179.874L336.749 191.672H345.125Z" id="CL2"/>
<path d="M338.639 172.009L334.536 179.761L344.529 172.009H338.639Z" id="CL2"/>
<path d="M334.536 179.76L338.639 172.008L322 191.368L334.536 179.76Z" id="CL3"/>
<path d="M336.749 191.672H329.053L338.507 208.29L338.517 208.3L336.749 191.672Z" id="CL3"/>
<path d="M338.507 208.29L329.053 191.672H322L338.507 208.29Z" id="CL2"/>
<path d="M329.053 191.672H336.749L334.537 179.761L329.053 191.672Z" id="CL4"/>
<path d="M322 191.369V191.672H329.053L334.536 179.761L322 191.369Z" id="CL0"/>
</svg>
